<?xml version="1.0" encoding="UTF-8"?>
<svg width="364px" height="364px" viewBox="0 0 364 364" version="1.1" xmlns="http://www.w3.org/2000/svg" xmlns:xlink="http://www.w3.org/1999/xlink">
    <!-- Generator: Sketch 50 (54983) - http://www.bohemiancoding.com/sketch -->
    <title>Artboard</title>
    <desc>Created with Sketch.</desc>
    <defs></defs>
    <g id="Artboard" stroke="none" stroke-width="1" fill="none" fill-rule="evenodd">
        <polygon id="Triangle" fill="#0086BF" points="242 35 271 93 213 93"></polygon>
        <polygon id="Triangle" fill="#0086BF" points="122 35 151 93 93 93"></polygon>
        <polygon id="Triangle" fill="#0086BF" points="152 94 181 152 123 152"></polygon>
        <polygon id="Triangle" fill="#0086BF" transform="translate(92.000000, 64.000000) scale(1, -1) translate(-92.000000, -64.000000) " points="92 35 121 93 63 93"></polygon>
        <polygon id="Triangle" fill="#0086BF" transform="translate(122.000000, 123.000000) scale(1, -1) translate(-122.000000, -123.000000) " points="122 94 151 152 93 152"></polygon>
        <polygon id="Triangle" fill="#0086BF" transform="translate(152.000000, 182.000000) scale(1, -1) translate(-152.000000, -182.000000) " points="152 153 181 211 123 211"></polygon>
        <polygon id="Triangle" fill="#0086BF" points="212 94 241 152 183 152"></polygon>
        <polygon id="Triangle" fill="#0086BF" points="182 153 211 211 153 211"></polygon>
        <polygon id="Triangle" fill="#0086BF" transform="translate(182.000000, 241.000000) scale(1, -1) translate(-182.000000, -241.000000) " points="182 212 211 270 153 270"></polygon>
        <polygon id="Triangle" fill="#0086BF" transform="translate(152.000000, 300.000000) scale(1, -1) translate(-152.000000, -300.000000) " points="152 271 181 329 123 329"></polygon>
        <polygon id="Triangle" fill="#0086BF" transform="translate(212.000000, 182.000000) scale(1, -1) translate(-212.000000, -182.000000) " points="212 153 241 211 183 211"></polygon>
        <polygon id="Triangle" fill="#0086BF" transform="translate(242.000000, 123.000000) scale(1, -1) translate(-242.000000, -123.000000) " points="242 94 271 152 213 152"></polygon>
        <polygon id="Triangle" fill="#0086BF" transform="translate(272.000000, 64.000000) scale(1, -1) translate(-272.000000, -64.000000) " points="272 35 301 93 243 93"></polygon>
        <polygon id="Triangle" fill="#0086BF" points="152 212 181 270 123 270"></polygon>
        <polygon id="Triangle" fill="#0086BF" points="182 271 211 329 153 329"></polygon>
        <polygon id="Triangle" fill="#0086BF" points="122 271 151 329 93 329"></polygon>
        <polygon id="Triangle" fill="#0086BF" points="242 271 271 329 213 329"></polygon>
        <polygon id="Triangle" fill="#0086BF" transform="translate(212.000000, 300.000000) scale(1, -1) translate(-212.000000, -300.000000) " points="212 271 241 329 183 329"></polygon>
        <polygon id="Triangle" fill="#0086BF" transform="translate(272.000000, 300.000000) scale(1, -1) translate(-272.000000, -300.000000) " points="272 271 301 329 243 329"></polygon>
    </g>
</svg>